<svg width="32" height="32" viewBox="0 0 32 32" fill="none" xmlns="http://www.w3.org/2000/svg">
<path d="M23.9295 2H8.06953C7.32693 2 6.61473 2.295 6.08963 2.8201C5.56453 3.3452 5.26953 4.05739 5.26953 4.8V27.2C5.26953 27.5677 5.34196 27.9318 5.48267 28.2715C5.62338 28.6112 5.82963 28.9199 6.08963 29.1799C6.34964 29.4399 6.65831 29.6462 6.99802 29.7869C7.33773 29.9276 7.70183 30 8.06953 30H23.9295C24.2972 30 24.6613 29.9276 25.001 29.7869C25.3408 29.6462 25.6494 29.4399 25.9094 29.1799C26.1694 28.9199 26.3757 28.6112 26.5164 28.2715C26.6571 27.9318 26.7295 27.5677 26.7295 27.2V4.8C26.7295 4.4323 26.6571 4.0682 26.5164 3.72849C26.3757 3.38877 26.1694 3.08011 25.9094 2.8201C25.6494 2.5601 25.3408 2.35385 25.001 2.21314C24.6613 2.07242 24.2972 2 23.9295 2ZM24.8695 27.2C24.8669 27.4476 24.7667 27.6841 24.5907 27.8582C24.4147 28.0324 24.1771 28.13 23.9295 28.13H8.06953C7.82195 28.13 7.58436 28.0324 7.40836 27.8582C7.23236 27.6841 7.13217 27.4476 7.12953 27.2V4.8C7.13217 4.55243 7.23236 4.3159 7.40836 4.14177C7.58436 3.96765 7.82195 3.86999 8.06953 3.87H23.9295C24.1771 3.86999 24.4147 3.96765 24.5907 4.14177C24.7667 4.3159 24.8669 4.55243 24.8695 4.8V27.2Z" fill="white"/>
<path d="M21.4399 15.07H16.9299V10.56C16.9299 10.3134 16.8319 10.0768 16.6575 9.9024C16.4831 9.72799 16.2465 9.63 15.9999 9.63C15.7532 9.63 15.5167 9.72799 15.3423 9.9024C15.1679 10.0768 15.0699 10.3134 15.0699 10.56V15.07H10.5599C10.3132 15.07 10.0767 15.168 9.90227 15.3424C9.72786 15.5168 9.62988 15.7534 9.62988 16C9.62988 16.2467 9.72786 16.4832 9.90227 16.6576C10.0767 16.832 10.3132 16.93 10.5599 16.93H15.0699V21.44C15.0699 21.6867 15.1679 21.9232 15.3423 22.0976C15.5167 22.272 15.7532 22.37 15.9999 22.37C16.2465 22.37 16.4831 22.272 16.6575 22.0976C16.8319 21.9232 16.9299 21.6867 16.9299 21.44V16.93H21.4399C21.6865 16.93 21.9231 16.832 22.0975 16.6576C22.2719 16.4832 22.3699 16.2467 22.3699 16C22.3699 15.7534 22.2719 15.5168 22.0975 15.3424C21.9231 15.168 21.6865 15.07 21.4399 15.07Z" fill="white"/>
</svg>
