<svg width="32" height="32" viewBox="0 0 32 32" fill="none" xmlns="http://www.w3.org/2000/svg">
<g clip-path="url(#clip0_525_79)">
<path d="M30 4.66666H2C1.46957 4.66666 0.960859 4.87737 0.585786 5.25244C0.210714 5.62752 0 6.13622 0 6.66666L0 25.3333C0 25.8638 0.210714 26.3725 0.585786 26.7475C0.960859 27.1226 1.46957 27.3333 2 27.3333H30C30.5304 27.3333 31.0391 27.1226 31.4142 26.7475C31.7893 26.3725 32 25.8638 32 25.3333V6.66666C32 6.13622 31.7893 5.62752 31.4142 5.25244C31.0391 4.87737 30.5304 4.66666 30 4.66666ZM29.5733 5.99999L16 16.4933L2.42667 5.99999H29.5733ZM1.33333 25.06V6.83999L11.6067 14.78L1.33333 25.06ZM2.27333 26L12.6667 15.6067L15.5867 17.8667C15.7032 17.9564 15.8462 18.0051 15.9933 18.0051C16.1404 18.0051 16.2834 17.9564 16.4 17.8667L19.3333 15.6067L29.7267 26H2.27333ZM30.6667 25.06L20.3933 14.78L30.6667 6.83999V25.06Z" fill="white"/>
</g>
<defs>
<clipPath id="clip0_525_79">
<rect width="32" height="32" fill="white"/>
</clipPath>
</defs>
</svg>
