<svg width="32" height="32" viewBox="0 0 32 32" fill="none" xmlns="http://www.w3.org/2000/svg">
<path d="M16 2C8.28 2 2 8.28 2 16C2 23.72 8.28 30 16 30C23.72 30 30 23.72 30 16C30 8.28 23.72 2 16 2ZM8.924 25.67C9.053 21.874 12.173 18.823 16 18.823C19.827 18.823 22.947 21.873 23.076 25.67C21.089 27.127 18.647 28 16 28C13.353 28 10.911 27.127 8.924 25.67ZM16 16C14.343 16 12.995 14.652 12.995 12.995C12.995 11.338 14.343 9.99 16 9.99C17.657 9.99 19.005 11.338 19.005 12.995C19.005 14.652 17.657 16 16 16ZM24.89 24.031C24.205 20.789 21.788 18.18 18.655 17.221C20.062 16.334 21.005 14.777 21.005 12.995C21.005 10.235 18.76 7.99 16 7.99C13.24 7.99 10.995 10.235 10.995 12.995C10.995 14.777 11.938 16.334 13.345 17.221C10.212 18.18 7.795 20.789 7.11 24.031C5.184 21.902 4 19.09 4 16C4 9.383 9.383 4 16 4C22.617 4 28 9.383 28 16C28 19.09 26.816 21.902 24.89 24.031Z" fill="white"/>
</svg>
