<svg width="32" height="32" viewBox="0 0 32 32" fill="none" xmlns="http://www.w3.org/2000/svg">
<g clip-path="url(#clip0_525_100)">
<path fill-rule="evenodd" clip-rule="evenodd" d="M23.3333 14.6667H8.66667C4.98467 14.6667 2 11.682 2 8.00001C2 4.31801 4.98467 1.33334 8.66667 1.33334H23.3333C27.0147 1.33334 30 4.31801 30 8.00001C30 11.682 27.0147 14.6667 23.3333 14.6667ZM23.3333 2.66668H8.66667C5.72133 2.66668 3.33333 5.05468 3.33333 8.00001C3.33333 10.9453 5.72133 13.3333 8.66667 13.3333H23.3333C26.2787 13.3333 28.6667 10.9453 28.6667 8.00001C28.6667 5.05468 26.2787 2.66668 23.3333 2.66668ZM8.66667 12C6.458 12 4.66667 10.2093 4.66667 8.00001C4.66667 5.79134 6.458 4.00001 8.66667 4.00001C10.8753 4.00001 12.6667 5.79134 12.6667 8.00001C12.6667 10.2093 10.8753 12 8.66667 12ZM8.66667 5.33334C7.194 5.33334 6 6.52734 6 8.00001C6 9.47268 7.194 10.6667 8.66667 10.6667C10.1393 10.6667 11.3333 9.47268 11.3333 8.00001C11.3333 6.52734 10.1393 5.33334 8.66667 5.33334ZM8.66667 17.3333H23.3333C27.0147 17.3333 30 20.3187 30 24C30 27.6813 27.0147 30.6667 23.3333 30.6667H8.66667C4.98467 30.6667 2 27.6813 2 24C2 20.3187 4.98467 17.3333 8.66667 17.3333ZM8.66667 29.3333H23.3333C26.2787 29.3333 28.6667 26.9453 28.6667 24C28.6667 21.0547 26.2787 18.6667 23.3333 18.6667H8.66667C5.72133 18.6667 3.33333 21.0547 3.33333 24C3.33333 26.9453 5.72133 29.3333 8.66667 29.3333ZM23.3333 20C25.542 20 27.3333 21.7913 27.3333 24C27.3333 26.2087 25.542 28 23.3333 28C21.1247 28 19.3333 26.2087 19.3333 24C19.3333 21.7913 21.1247 20 23.3333 20ZM23.3333 26.6667C24.806 26.6667 26 25.4727 26 24C26 22.5273 24.806 21.3333 23.3333 21.3333C21.8607 21.3333 20.6667 22.5273 20.6667 24C20.6667 25.4727 21.8607 26.6667 23.3333 26.6667Z" fill="white"/>
</g>
<defs>
<clipPath id="clip0_525_100">
<rect width="32" height="32" fill="white"/>
</clipPath>
</defs>
</svg>
